<svg xmlns="http://www.w3.org/2000/svg" width="299.99568194763737" height="304.915625" viewBox="0 0 312.5 317.6250144464802" class="looka-1j8o68f">
    <defs id="SvgjsDefs1626">
        <linearGradient id="SvgjsLinearGradient1633">
            <stop id="SvgjsStop1634" stop-color="#f5ec9b" offset="0" data-darkreader-inline-stopcolor="" style="--darkreader-inline-stopcolor: #504908;"></stop>
            <stop id="SvgjsStop1635" stop-color="#905e26" offset="0.5" data-darkreader-inline-stopcolor="" style="--darkreader-inline-stopcolor: #734b1e;"></stop>
            <stop id="SvgjsStop1636" stop-color="#f5ec9b" offset="1" data-darkreader-inline-stopcolor="" style="--darkreader-inline-stopcolor: #504908;"></stop>
        </linearGradient>
        <linearGradient id="SvgjsLinearGradient1637">
            <stop id="SvgjsStop1638" stop-color="#f5ec9b" offset="0" data-darkreader-inline-stopcolor="" style="--darkreader-inline-stopcolor: #504908;"></stop>
            <stop id="SvgjsStop1639" stop-color="#905e26" offset="0.5" data-darkreader-inline-stopcolor="" style="--darkreader-inline-stopcolor: #734b1e;"></stop>
            <stop id="SvgjsStop1640" stop-color="#f5ec9b" offset="1" data-darkreader-inline-stopcolor="" style="--darkreader-inline-stopcolor: #504908;"></stop>
        </linearGradient>
        <linearGradient id="SvgjsLinearGradient1641">
            <stop id="SvgjsStop1642" stop-color="#f5ec9b" offset="0" data-darkreader-inline-stopcolor="" style="--darkreader-inline-stopcolor: #504908;"></stop>
            <stop id="SvgjsStop1643" stop-color="#905e26" offset="0.5" data-darkreader-inline-stopcolor="" style="--darkreader-inline-stopcolor: #734b1e;"></stop>
            <stop id="SvgjsStop1644" stop-color="#f5ec9b" offset="1" data-darkreader-inline-stopcolor="" style="--darkreader-inline-stopcolor: #504908;"></stop>
        </linearGradient>
    </defs>
    <g id="SvgjsG1627" featurekey="rootContainer" transform="matrix(1.679851890870981,0,0,1.679851890870981,0.0005871445827524324,0.0002897674663174521)" fill="url(#SvgjsLinearGradient1633)">
        <path xmlns="http://www.w3.org/2000/svg" d="M17.914 148.907zM22.657 154.94a90.586 90.586 0 0 0 5.861 6.251c6.914 6.805 15.159 12.525 24.004 16.851 3.259 1.526 6.265 3.107 9.787 4.468.88.338 1.779.7 2.724 1.026.953.302 1.941.604 2.974.903 1.027.321 2.122.549 3.267.786 1.146.23 2.336.493 3.614.624a91.24 91.24 0 0 1-18.434-5.99 93.833 93.833 0 0 1-16.873-9.842c-10.548-7.727-19.57-17.648-26.16-28.989-.272-.339-.685-.985-1.18-1.808l-.796-1.348-.803-1.551c-.534-1.076-1.149-2.168-1.62-3.226a71.281 71.281 0 0 0-1.326-2.748c2.048 5.101 4.412 9.563 7.059 13.806a93.473 93.473 0 0 0 3.869 5.697c-.192-.259-.392-.511-.583-.771a95.012 95.012 0 0 0 4.6 5.841l.016.02zM18.039 149.078z"></path>
    </g>
    <g id="SvgjsG1628" featurekey="rootContainer" transform="matrix(1.679851890870981,0,0,1.679851890870981,0.0005871445827524324,0.0002897674663174521)" fill="url(#SvgjsLinearGradient1637)">
        <path xmlns="http://www.w3.org/2000/svg" d="M17.77 149.16l.044.086c2.405 4.893 4.64 10.056 6.526 15.503l.007.01.012.02.007.01c3.59 9.157 5.978 18.691 7.293 27.778a.424.424 0 0 1 0 .073l-.002.008c.227-.254.52-.49.858-.687.613-.355 1.317-.573 2.135-.665.43-.044.872-.033 1.343.024 3.428.235 7.962 1.61 12.488 5.277l.006.005.008.006.008.007.007.006c1.896 1.42 4.094 3.378 6.381 5.774l.001.002.001.002c4.264 4.167 8.687 9.058 12.902 14.146a.074.074 0 0 0 .065.038.11.11 0 0 0 .09-.073l.015-.052c.006-.02.014-.042.023-.065 1.233-4.3 2.09-9.073 2.565-14.413.545-7.287.513-14.48-.118-21.385-.344-3.704-.89-7.385-1.754-11.004-.123-.487-.258-.959-.402-1.422a4.427 4.427 0 0 0-.418-1.057c-4.523-6.617-10.327-12.23-16.674-15.798l-.006-.004-.008-.005-.008-.005-.008-.005a76.49 76.49 0 0 0-4.27-1.98c-2.65-.865-5.54-1.523-8.713-1.981a.078.078 0 0 0-.041.015c-.12.08-.242.17-.367.277zM18.139 148.9z"></path>
    </g>
    <g id="SvgjsG1629" featurekey="rootContainer" transform="matrix(1.679851890870981,0,0,1.679851890870981,0.0005871445827524324,0.0002897674663174521)" fill="url(#SvgjsLinearGradient1641)">
        <path xmlns="http://www.w3.org/2000/svg" d="M18.197 148.745c3.65 1.873 7.342 4.056 11.096 6.471.009.008.019.016.028.024.01.009.02.017.03.026.019.017.038.035.058.052 1.295 1.189 2.59 2.452 3.882 3.814 3.187 3.04 6.223 6.212 9.111 9.394a.226.226 0 0 1 .048.105c.012.059.014.136-.02.217a.437.437 0 0 1-.088.102.495.495 0 0 1-.193.081c-.073.026-.16.046-.261.06-.017.004-.032.005-.047.01-.045.01-.102.025-.17.04-1.17.267-2.566.494-4.063.632-5.993.385-12.344-.868-18.735-2.377l-3.616-.778-.74.452-.155.096-.15.11c-3.706 2.833-7.645 5.4-11.803 7.37-.553.235-1.11.47-1.665.7l-.04.017a.438.438 0 0 1-.13.032.254.254 0 0 1-.103-.016.22.22 0 0 1-.081-.062c-1.507-1.137-2.914-2.228-4.205-3.192l-.012-.01c-1.123-.796-2.11-1.548-2.925-2.292a93.98 93.98 0 0 1-10.635-8.935c-.008-.008-.017-.017-.025-.025a1.52 1.52 0 0 1-.295-.324l-.025-.033c-.014-.021-.024-.036-.032-.046a.46.46 0 0 1-.057-.07 62.942 62.942 0 0 1-.805-1.15c.635.172 1.303.343 2.042.486a89.042 89.042 0 0 0 15.554 2.961c2.843-.12 5.532-.435 7.975-1.036l.014-.004.016-.006.014-.008.016-.008c.684-.309 1.343-.638 1.99-.985a.387.387 0 0 0 .072-.032c.31-.137.573-.296.792-.485z"></path>
    </g>
</svg>
